# xmcd
#
# Track frame offsets:
#	150
#	3667
#	31848
#	53259
#	76033
#	95315
#	117789
#	135621
#	152399
#	184496
#	200145
#	215440
#	236054
#	256031
#	271643
#	284403
#
# Disc length: 4066 seconds
#
# Revision: 1
# Processed by: cddbd v1.5.2PL0 Copyright (c) Steve Scherf et al.
# Submitted via: audiograbber 1.83.01
#
DISCID=cb0fe010
DTITLE=Various Artist - Siesta XIV - Boys and Girls - CD2
DYEAR=2018
DGENRE=Blues
TTITLE0=Marcin Kydrynski - Siesta Theme
TTITLE1=Lisa Fisher - Papa Was A Rollin' Stone
TTITLE2=Kandace Springs - Novacaine Heart
TTITLE3=China Moses - Why Don't You Do Right
TTITLE4=Holly Cole - The House Is Haunted By The Echo Of Your Last Goodbye
TTITLE5=Melody Gardot - Bad News
TTITLE6=Madeleine Peyroux - Dance Me To The End Of Love
TTITLE7=Indra Rios-Moore - I Can See Clearly Now
TTITLE8=Diana Krall - And I Love Him
TTITLE9=Buika - Hijos De La Luna
TTITLE10=Lucibela - Violeiro
TTITLE11=Sandra Horta - Lindeza
TTITLE12=Nancy Viera and Raphaele Lannadere - Les Lendemains De Carnaval
TTITLE13=Ola Jas - Bez Milosci
TTITLE14=Fabia Rebordao - Pad Papugami
TTITLE15=Anna Maria Jopek - Dwa Serduszka Cztery Oczy
EXTD=
EXTT0=
EXTT1=
EXTT2=
EXTT3=
EXTT4=
EXTT5=
EXTT6=
EXTT7=
EXTT8=
EXTT9=
EXTT10=
EXTT11=
EXTT12=
EXTT13=
EXTT14=
EXTT15=
PLAYORDER=
